<?xml version="1.0" encoding="UTF-8" standalone="no"?>
<svg
   width="411.48605"
   height="410.93958"
   viewBox="0 0 411.48605 410.93958"
   version="1.1"
   id="svg3"
   sodipodi:docname="trace_logo_1.svg"
   inkscape:export-filename="trace_logo_1.png"
   inkscape:export-xdpi="96"
   inkscape:export-ydpi="96"
   xmlns:inkscape="http://www.inkscape.org/namespaces/inkscape"
   xmlns:sodipodi="http://sodipodi.sourceforge.net/DTD/sodipodi-0.dtd"
   xmlns="http://www.w3.org/2000/svg"
   xmlns:svg="http://www.w3.org/2000/svg">
  <defs
     id="defs3" />
  <sodipodi:namedview
     id="namedview3"
     pagecolor="#ffffff"
     bordercolor="#000000"
     borderopacity="0.25"
     inkscape:showpageshadow="2"
     inkscape:pageopacity="0.0"
     inkscape:pagecheckerboard="0"
     inkscape:deskcolor="#d1d1d1" />
  <path
     d="m 199.40844,60.96151 v 24 h 10.5 10.5 v -2.948 c 0,-2.851 -0.172,-2.957 -5.25,-3.25 l -5.25,-0.302 -0.293,-7.19 -0.292,-7.191 4.292,-0.309 c 4.019,-0.29 4.313,-0.514 4.602,-3.5 0.3,-3.1 0.188,-3.198 -4,-3.5 l -4.309,-0.31 -0.298,-6.25 -0.297,-6.25 h 5.547 5.548 v -3.5 -3.5 h -10.5 -10.5 v 24 m -24.041,-20.847 -3.54,0.947 4.276,16.7 c 4.781,18.677 5.194,22.654 2.501,24.095 -3.864,2.068 -4.81,0.052 -10.185,-21.701 -3.104,-12.564 -4.631,-17.17 -5.572,-16.809 -0.714,0.274 -2.904,0.799 -4.868,1.168 -1.964,0.368 -3.571,0.853 -3.571,1.077 0,0.224 2.103,8.836 4.674,19.139 4.174,16.726 5.02,19.079 7.9,21.981 2.492,2.51 4.076,3.25 6.96,3.25 9.904,0 16.449,-4.893 16.488,-12.327 0.012,-2.295 -1.887,-11.936 -4.221,-21.423 -4.572,-18.586 -4.108,-17.897 -10.842,-16.097 m 61.561,4.257 c -2.615,2.773 -3.821,5.7 -6.461,15.675 -5.139,19.424 -4.434,24.267 4.105,28.185 2.946,1.351 5.189,3.168 5.834,4.725 0.576,1.391 2.074,3.817 3.329,5.391 l 2.281,2.861 1.765,-2.694 c 1.653,-2.523 1.66,-2.854 0.101,-5.233 -1.63,-2.488 -1.593,-2.597 1.854,-5.439 3.902,-3.216 5.204,-6.474 9.145,-22.881 1.512,-6.293 2.286,-11.763 1.932,-13.652 -1.103,-5.883 -8.303,-10.348 -16.686,-10.348 -3.236,0 -4.586,0.639 -7.199,3.41 m 8.193,5.02 c -0.787,0.787 -2.862,7.199 -4.613,14.25 -1.75,7.051 -3.404,13.56 -3.675,14.465 -0.561,1.871 1.997,4.855 4.163,4.855 2.07,0 3.97,-4.798 7.401,-18.692 1.656,-6.705 3.011,-12.41 3.011,-12.678 0,-0.824 -3.092,-3.63 -4,-3.63 -0.471,0 -1.501,0.644 -2.287,1.43 m 29.287,13.219 c -12.528,21.884 -13.975,24.834 -13.987,28.524 -0.016,4.634 3.404,8.882 9.543,11.854 5.747,2.782 9.997,2.094 14.123,-2.287 2.443,-2.595 20.321,-31.928 20.321,-33.342 0,-0.205 -1.868,-1.552 -4.15,-2.993 -3.317,-2.094 -4.315,-2.347 -4.968,-1.262 -0.45,0.746 -4.77,8.066 -9.6,16.266 -4.83,8.199 -9.57,15.397 -10.532,15.995 -2.403,1.491 -5.33,-0.498 -4.994,-3.395 0.14,-1.214 4.303,-9.122 9.25,-17.573 4.947,-8.451 8.994,-15.749 8.994,-16.217 0,-0.727 -7.092,-5.258 -8.136,-5.198 -0.2,0.012 -2.839,4.344 -5.864,9.628 m -152.75,-1.072 c -4.537,2.497 -8.25,4.997 -8.25,5.555 0,0.996 21.505,38.528 23.06,40.245 0.614,0.678 5.547,-1.56 8.798,-3.992 0.198,-0.148 -1.994,-4.381 -4.87,-9.406 -3.898,-6.811 -4.94,-9.427 -4.095,-10.272 0.845,-0.845 3.171,0.892 9.135,6.82 l 8.001,7.954 4.545,-2.411 4.545,-2.411 -8.42,-8.579 c -8.215,-8.37 -8.41,-8.681 -7.968,-12.69 0.318,-2.892 -0.164,-5.318 -1.626,-8.184 -4.481,-8.784 -10.428,-9.468 -22.855,-2.629 m 5.283,4.775 c -1.768,1.293 -1.707,1.6 1.382,7 1.778,3.106 3.549,5.648 3.936,5.648 2.191,0 5.149,-3.402 5.149,-5.922 0,-6.052 -6.062,-9.947 -10.467,-6.726 m -35.504996,19.12 -8.429,8.473 2.385,2.538 2.384,2.538 2.6,-2.49 2.599,-2.49 14.438996,14.465 14.439,14.465 3.795,-3.705 3.795,-3.706 -14.018,-14.043 c -7.709,-7.723 -14.017,-14.414 -14.017,-14.869 0,-0.455 1.012,-1.649 2.25,-2.653 l 2.25,-1.825 -2.424,-2.585 c -1.334,-1.422 -2.694,-2.585 -3.022,-2.585 -0.329,0 -4.390996,3.813 -9.025996,8.472 m 209.967996,10.032 c -13.918,13.937 -16.314,16.769 -15.406,18.208 0.592,0.938 4.093,4.394 7.78,7.681 l 6.705,5.977 2.175,-2.175 2.175,-2.175 -3.933,-4.028 -3.933,-4.028 5.195,-5.194 5.194,-5.194 3.019,2.893 3.02,2.892 2.521,-2.368 2.52,-2.368 -3.011,-3.107 -3.011,-3.107 4.494,-4.411 4.495,-4.411 3.812,3.723 3.812,3.722 2.389,-2.542 2.388,-2.543 -6.921,-6.974 c -3.807,-3.836 -7.389,-6.975 -7.96,-6.975 -0.571,0 -8.454,7.427 -17.519,16.504 m -128.039,32.554 c -4.785,6.454 -5.124,7.261 -3.967,9.423 1.801,3.366 0.548,7.371 -2.505,8.004 -1.367,0.283 -3.497,0.728 -4.735,0.988 -5.066,1.065 -18.688,22.383 -22.259,34.831 -2.422,8.445 -2.189,21.329 0.495,27.396 3.944,8.917 10.083,12.985 8.375,5.55 -0.473,-2.062 -0.855,-6.942 -0.847,-10.844 0.012,-5.895 0.435,-7.712 2.5,-10.748 2.905,-4.269 8.948,-8.831 14.172,-10.697 4.672,-1.669 10.104,-0.254 17.439,4.542 4.274,2.795 5.049,3.753 4.664,5.767 -0.269,1.408 0.197,3.073 1.118,3.994 1.44,1.44 0.583,2.315 -9.664,9.872 -6.183,4.561 -16.512,12.187 -22.953,16.947 l -11.71,8.655 6.627,8.881 6.627,8.881 h 52.166 52.166 l 6.618,-8.868 6.617,-8.869 -15.7,-11.638 c -8.636,-6.401 -18.957,-14.036 -22.938,-16.966 -6.582,-4.847 -7.094,-5.471 -5.663,-6.902 0.915,-0.915 1.38,-2.582 1.111,-3.987 -0.385,-2.014 0.39,-2.972 4.664,-5.767 11.562,-7.56 18.212,-6.95 27.789,2.547 4.783,4.744 5.774,6.353 6.373,10.348 0.683,4.556 0.409,8.442 -1.085,15.352 -1.464,6.776 4.677,2.604 8.464,-5.75 2.61,-5.756 2.85,-20.058 0.472,-28.067 -3.751,-12.628 -17.249,-33.489 -22.323,-34.497 -6.103,-1.212 -7.571,-2.022 -7.904,-4.355 -0.187,-1.309 0.213,-3.411 0.888,-4.672 1.107,-2.068 0.715,-2.982 -4.006,-9.351 -2.878,-3.882 -5.478,-7.058 -5.778,-7.058 -1.181,0 -22.265,16.269 -22.265,17.18 0,1.452 9.015,12.888 10.654,13.518 0.781,0.299 2.266,-0.221 3.3,-1.156 2.161,-1.956 5.253,-0.893 7.023,2.415 1.404,2.623 1.26,10.016 -0.252,13.004 -1.832,3.621 -13.911,13.139 -15.725,12.391 -2.656,-1.096 -4.892,-0.536 -8.328,2.085 -1.848,1.409 -3.726,2.563 -4.172,2.563 -0.446,0 -2.324,-1.154 -4.172,-2.563 -3.436,-2.621 -5.672,-3.181 -8.328,-2.085 -1.805,0.744 -13.87,-8.748 -15.749,-12.391 -0.698,-1.354 -1.152,-4.89 -1.01,-7.859 0.219,-4.557 0.684,-5.715 2.985,-7.427 2.628,-1.957 2.796,-1.965 4.712,-0.231 1.093,0.989 2.627,1.553 3.408,1.254 1.639,-0.63 10.654,-12.066 10.654,-13.518 0,-0.911 -21.084,-17.18 -22.265,-17.18 -0.3,0 -2.9,3.176 -5.778,7.058 m 15.728,98.792 -19.815,14.65 20.132,0.271 c 11.072,0.149 28.917,0.149 39.654,0 l 19.523,-0.271 -16.268,-12 c -8.947,-6.6 -17.875,-13.192 -19.84,-14.65 l -3.571,-2.649 -19.815,14.649 m 13.74,-1.515 c -0.303,0.79 -0.41,3.4 -0.238,5.801 l 0.313,4.364 h 6 6 v -5.5 -5.5 l -5.762,-0.3 c -4.292,-0.224 -5.903,0.066 -6.313,1.135 m -70.143,73.108 -2.219,3.433 3.472,2.145 c 2.249,1.39 3.206,2.585 2.718,3.393 -0.414,0.685 -5.869,9.219 -12.123,18.963 -6.253,9.744 -11.203,17.86 -11,18.035 0.898,0.774 8.873,5.588 9.256,5.588 0.234,0 5.704,-8.325 12.154,-18.5 6.451,-10.175 12.006,-18.498 12.344,-18.496 0.339,0.002 1.99,0.841 3.669,1.865 l 3.053,1.862 2.269,-3.461 c 1.247,-1.903 2.123,-3.588 1.947,-3.745 -0.957,-0.848 -21.348,-13.787 -22.251,-14.12 -0.589,-0.217 -2.069,1.151 -3.289,3.038 m 134.591,4.423 c -2.629,1.667 -5.065,4.184 -5.825,6.019 -2.616,6.316 0.729,15.397 6.835,18.554 1.499,0.775 6.51,2.128 11.137,3.005 9.195,1.745 14.331,5.113 13.77,9.031 -0.453,3.164 -4.515,3.163 -7.819,-0.003 l -2.813,-2.695 -3.579,2.73 c -1.968,1.502 -3.579,3.075 -3.579,3.495 0,1.399 7.911,7.938 10.341,8.547 3.577,0.898 10.09,-1.216 13.468,-4.371 3.531,-3.298 5.381,-9.027 4.222,-13.07 -2.153,-7.507 -7.605,-11.295 -19.548,-13.58 -8.516,-1.629 -11.983,-3.377 -12.99,-6.549 -0.714,-2.25 0.961,-4.979 3.057,-4.979 0.718,0 2.246,1.196 3.395,2.658 l 2.091,2.657 2.732,-2.392 c 1.503,-1.316 3.111,-2.689 3.575,-3.051 1.342,-1.047 -1.186,-4.806 -4.657,-6.922 -4.435,-2.704 -8.533,-2.433 -13.813,0.916 m -103.839,11.837 c -1.906,0.989 -4.332,3.296 -5.39,5.128 -3.022,5.234 -9.644,28.861 -9.644,34.409 0,4.277 0.454,5.414 3.297,8.257 5.191,5.191 14.828,7.041 20.743,3.982 3.771,-1.95 6.229,-6.857 10.678,-21.316 5.735,-18.638 4.805,-25.275 -4.095,-29.212 -6.618,-2.927 -11.582,-3.325 -15.589,-1.248 m 72.798,1.652 c -2.018,0.63 -3.986,1.464 -4.375,1.853 -0.697,0.699 13.216,48.525 14.578,50.112 0.51,0.593 20.524,-4.557 22.72,-5.846 0.23,-0.136 -1.782,-6.615 -2.247,-7.235 -0.108,-0.143 -2.123,0.419 -4.478,1.25 -7.609,2.685 -6.979,3.585 -13.984,-19.989 -3.513,-11.825 -6.873,-21.453 -7.467,-21.395 -0.593,0.058 -2.73,0.62 -4.747,1.25 m -33.332,4.114 c -2.2,0.826 -4.135,1.508 -4.299,1.516 -0.164,0.008 -1.167,1.928 -2.228,4.265 -1.613,3.554 -1.933,6.592 -1.951,18.557 -0.026,16.604 1.023,21.904 5.106,25.816 2.519,2.413 3.898,2.863 9.656,3.149 8.191,0.407 12.881,-1.641 15.508,-6.772 1.555,-3.037 1.753,-5.748 1.497,-20.5 -0.319,-18.366 -1.156,-21.728 -6.232,-25.055 -3.476,-2.277 -12.25,-2.779 -17.057,-0.976 m -34.501,3.715 c -1.895,4.311 -8.999,29.139 -8.999,31.45 0,2.533 3.021,4.679 5.336,3.791 1.848,-0.71 2.587,-2.589 7.787,-19.812 4.518,-14.96 4.467,-16.839 -0.465,-17.429 -1.974,-0.235 -2.898,0.27 -3.659,2 m 39.201,4.016 c -0.84,0.84 -1.2,6.333 -1.2,18.3 0,11.967 0.36,17.46 1.2,18.3 2.024,2.024 5.777,1.435 6.699,-1.05 1.057,-2.849 0.152,-32.655 -1.063,-35 -1.046,-2.019 -3.89,-2.296 -5.636,-0.55"
     stroke="none"
     fill="#b74c3f"
     fill-rule="evenodd"
     id="path1" />
  <path
     d="m 185.32462,0.5813347 c -64.719,6.551 -122.298996,43.0960003 -155.923,98.9639953 -48.549,80.666 -35.992,184.354 30.407004,251.066 32.139,32.29 73.752996,52.95 119.015996,59.086 12.231,1.658 41.791,1.656 54,-0.004 44.939,-6.109 86.56,-26.733 118.594,-58.768 46.108,-46.107 67.377,-110.987 57.824,-176.38 -7.313,-50.05 -35.882,-99.34399 -75.418,-130.126995 -29.755,-23.168 -62.156,-37.2940003 -97.313,-42.4270003 -12.826,-1.873 -39.386,-2.604 -51.187,-1.41 m 5.468,8.982 c -38.444,2.9340003 -73.165,16.1840003 -104.467996,39.8650003 -9.896,7.487005 -29.224,26.967005 -37.073004,37.364005 -26.628,35.27399 -39.814,75.11899 -39.631,119.75299 0.129,31.462 6.595,58.926 20.366,86.5 27.877004,55.818 80.738,95.572 140.977,106.024 61.867,10.734 124.248,-7.796 168.731,-50.122 34.393,-32.724 55.052,-72.902 61.139,-118.902 1.654,-12.493 1.431,-38.811 -0.438,-51.871 -5.799,-40.517 -24.335,-78.691 -52.287,-107.68299 -13.048,-13.534 -20.755,-20.057005 -34.703,-29.373005 -27.007,-18.039 -59.346,-28.939 -93.581,-31.5420003 -14.523,-1.104 -14.731,-1.104 -29.032,-0.013 m 1.532,6.6020003 c -58.727,4.708 -111.455996,35.279 -143.66,83.289995 -21.671,32.308 -32.005,66.261 -32.139,105.59 -0.065,19.195 1.028,28.581 5.398,46.342 12.901,52.437 48.191004,97.328 95.986,122.103 29.21,15.141 54.795,21.356 87.915,21.356 25.066,0 45.42,-3.566 66.692,-11.684 95.39,-36.401 145.261,-140.832 113.218,-237.077 -22.531,-67.67699 -80.664,-117.125995 -150.41,-127.943995 -10.272,-1.593 -34.113,-2.689 -43,-1.976 m -12.5,10.911 c -59.11,8.245 -110.611996,46.213005 -136.96,100.968995 -4.251,8.834 -11.526,28.385 -10.808,29.043 1.099,1.007 73.277,19.323 73.785,18.724 0.359,-0.422 1.468,-3.017 2.464,-5.767 9.635,-26.59 31.644,-49.456 58.272,-60.541 24.026,-10.002 54.468,-10.002 78.494,0 25.478,10.607 47.375,32.762 56.861,57.532 1.687,4.405 3.395,8.354 3.797,8.776 0.573,0.603 72.756,-17.706 73.877,-18.738 0.155,-0.143 -1.486,-5.215 -3.647,-11.273 -23.163,-64.93399 -80.436,-111.039995 -148.109,-119.229995 -11.428,-1.384 -36.367,-1.121 -48.026,0.505 m 14,84.393995 c -50.703,7.367 -87.133,53.072 -81.972,102.842 1.39,13.41 3.686,21.18 9.968,33.733 l 5.504,11 77.885,0.256 c 73.28,0.241 77.965,0.152 79.224,-1.5 0.736,-0.966 3.104,-5.131 5.262,-9.256 31.701,-60.593 -11.391,-134.57 -80.06,-137.443 -5.671,-0.237 -12.786,-0.072 -15.811,0.368 m -164.368,55.862 c -1.601,2.59 -3.788,24.651 -3.788,38.213 0,15.117 2.314,36.499 4.153,38.378 0.491,0.502 16.508,-3.314 37.344004,-8.897 l 36.483996,-9.775 -0.539,-5.603 c -0.297,-3.082 -0.918,-6.016 -1.381,-6.521 -1.249,-1.363 -8.738996,1.174 -13.444996,4.554 -2.672,1.919 -5.824,3.12 -9.256,3.526 l -5.204,0.617 v -15.776 -15.775 l 4.75,0.65 c 2.785,0.381 7.13,2.118 10.504,4.199 3.164,1.953 7.304,3.802 9.2,4.109 3.826996,0.621 3.875996,0.534 4.957996,-8.904 l 0.541,-4.718 -3.727,-0.981 c -2.048996,-0.539 -18.278996,-4.829 -36.065996,-9.532 -17.787004,-4.703 -32.723004,-8.551 -33.191004,-8.551 -0.468,0 -1.07,0.354 -1.337,0.787 m 315.868,8.277 c -18.15,4.863 -34.003,9.094 -35.229,9.403 -2.017,0.507 -2.177,1.012 -1.685,5.297 1.003,8.744 1.227,9.237 4.183,9.22 1.502,-0.009 4.531,-1.125 6.731,-2.48 6.781,-4.175 10.275,-5.504 14.468,-5.504 h 4.032 v 15.127 15.127 l -4.836,-0.464 c -3.236,-0.311 -6.799,-1.676 -10.77,-4.127 -4.053,-2.502 -7.116,-3.663 -9.664,-3.663 -3.641,0 -3.73,0.089 -3.744,3.75 -0.007,2.063 -0.262,4.678 -0.567,5.812 -0.52,1.934 1.702,2.666 36.085,11.878 20.925,5.606 37.008,9.44 37.499,8.938 1.822,-1.861 4.083,-23.116 4.083,-38.378 0,-13.681 -2.138,-35.657 -3.718,-38.213 -0.807,-1.306 -2.638,-0.895 -36.868,8.277 m -309.949,15.018 c 0.312,0.505 1.553,0.93 2.758,0.945 2.043,0.024 2.005,0.141 -0.559,1.731 -2.994,1.856 -3.566,3.242 -1.338,3.242 1.659,0 1.448,3.213 -0.249,3.779 -2.513,0.838 -0.966,2.226 2.587,2.323 l 3.75,0.103 -3.301,0.781 c -4.157,0.985 -4.534,1.384 -3.723,3.939 0.519,1.635 1.545,2.1 4.841,2.193 3.268,0.093 3.636,0.257 1.683,0.75 -3.736,0.944 -7,3.4 -7,5.266 0,1.992 1.935,2.833 6.832,2.966 3.303,0.089 3.419,0.179 1.168,0.9 -2.143,0.686 -2.214,0.829 -0.5,1 1.736,0.173 1.67,0.316 -0.5,1.086 -1.663,0.589 0.147,0.723 5.401,0.4 4.345,-0.267 9.183,-0.486 10.750004,-0.486 h 2.849 v -15.031 c 0,-11.152 -0.323,-15.132 -1.25,-15.42 -2.915004,-0.904 -24.730004,-1.326 -24.199004,-0.467 m 327.949,-0.395 c -3.3,0.169 -7.462,0.555 -9.25,0.856 l -3.25,0.548 v 14.954 14.955 l 3.25,0.005 c 1.788,0.003 7.709,0.301 13.159,0.661 7.407,0.491 9.727,0.363 9.191,-0.505 -0.395,-0.638 -1.704,-1.197 -2.909,-1.24 -1.929,-0.069 -1.862,-0.199 0.559,-1.083 2.9,-1.059 3.805,-3.838 1.25,-3.838 -1.931,0 -1.898,-0.903 0.112,-3.124 1.506,-1.664 1.424,-1.823 -1.25,-2.416 -4.834,-1.072 -5.006,-1.299 -1.042,-1.381 3.37,-0.07 3.782,-0.343 3.5,-2.329 -0.276,-1.942 -1.072,-2.323 -5.82,-2.786 l -5.5,-0.537 4.74,-0.825 c 2.607,-0.454 4.493,-1.226 4.191,-1.714 -0.302,-0.488 0.153,-0.888 1.01,-0.888 2.084,0 2.064,-4.592 -0.023,-5.393 -0.87,-0.334 -3.457,-0.666 -5.75,-0.739 l -4.168,-0.131 3.5,-0.737 c 1.925,-0.405 2.825,-0.828 2,-0.939 -1.078,-0.145 -0.937,-0.443 0.5,-1.061 l 2,-0.859 -2,0.118 c -1.1,0.066 -4.7,0.258 -8,0.428 m -296.832996,0.98 c -1.107,1.107 -0.786,30.333 0.333,30.333 0.624,0 1,-5.833 1,-15.5 0,-8.525 -0.15,-15.5 -0.333,-15.5 -0.184,0 -0.634,0.3 -1,0.667 m -3.265,15.333 c 0,8.525 0.154,12.012 0.341,7.75 0.188,-4.262 0.188,-11.238 0,-15.5 -0.187,-4.262 -0.341,-0.775 -0.341,7.75 m 280.597996,0 c 0,9.333 0.378,15 1,15 0.622,0 1,-5.667 1,-15 0,-9.333 -0.378,-15 -1,-15 -0.622,0 -1,5.667 -1,15 m 4.402,0 c 0,8.525 0.154,12.012 0.341,7.75 0.188,-4.262 0.188,-11.238 0,-15.5 -0.187,-4.262 -0.341,-0.775 -0.341,7.75 m -280.401996,37.707 c -19.525004,5.224 -35.621004,9.611 -35.768004,9.747 -0.762,0.706 7.654,22.442 12.309,31.791 26.334004,52.891 76.362,89.369 134.812,98.299 15.487,2.366 46.864,1.639 61.946,-1.434 55.627,-11.337 102.531,-47.998 127.294,-99.495 4.695,-9.764 11.867,-28.531 11.152,-29.181 -1.094,-0.994 -73.261,-19.291 -73.762,-18.701 -0.359,0.422 -1.461,3.017 -2.449,5.767 -11.629,32.363 -40.598,57.806 -74.862,65.749 -12.805,2.968 -32.539,2.968 -45.344,0 -34.412,-7.978 -62.394,-32.547 -74.849,-65.72 -1.245,-3.316 -2.875,-6.095 -3.621,-6.175 -0.747,-0.08 -17.332996,4.129 -36.857996,9.353 m 102.240996,25.618 c -1.242,0.69 -2.94,2.228 -3.773,3.417 -1.394,1.991 -1.346,2.253 0.603,3.296 1.763,0.944 2.524,0.752 4.544,-1.146 2.285,-2.146 2.525,-2.18 4.128,-0.577 1.603,1.603 1.59,1.912 -0.233,5.295 -1.064,1.977 -3.864,5.292 -6.222,7.368 -2.359,2.076 -4.288,4.055 -4.288,4.398 0,0.343 4.306,0.624 9.57,0.624 9.352,0 9.562,-0.051 9.25,-2.25 -0.258,-1.815 -1.057,-2.311 -4.129,-2.564 l -3.808,-0.314 3.558,-3.939 c 5.287,-5.851 4.627,-11.668 -1.569,-13.828 -3.94,-1.373 -4.806,-1.348 -7.631,0.22 m 23.147,-0.366 c -4.078,1.689 -6.388,5.906 -6.388,11.66 0,4.479 0.468,5.873 2.873,8.565 3.814,4.269 8.933,4.464 12.904,0.493 2.401,-2.401 2.723,-3.485 2.723,-9.177 0,-5.562 -0.346,-6.795 -2.5,-8.916 -2.902,-2.858 -6.608,-3.87 -9.612,-2.625 m 20.722,0.396 c -3.42,1.954 -5.034,5.434 -5.075,10.945 -0.046,6.329 2.077,10.252 6.304,11.647 6.145,2.028 11.095,-1.681 12.32,-9.233 0.666,-4.102 -0.991,-9.799 -3.512,-12.081 -2.519,-2.28 -7.233,-2.88 -10.037,-1.278 m 20.888,7.148 c -7.246,10.738 -7.232,10.497 -0.605,10.497 5.314,0 5.607,0.131 5.607,2.5 0,2.111 0.467,2.5 3,2.5 2.533,0 3,-0.389 3,-2.5 0,-1.375 0.45,-2.5 1,-2.5 0.55,0 1,-1.125 1,-2.5 0,-1.375 -0.45,-2.5 -1,-2.5 -0.564,0 -1,-2.833 -1,-6.5 v -6.5 h -2.97 c -2.579,0 -3.635,0.987 -8.032,7.503 m -40.798,-2.303 c -0.66,0.66 -1.2,3.569 -1.2,6.465 0,4.178 0.398,5.478 1.931,6.298 2.919,1.562 5.069,-1.178 5.069,-6.463 0,-5.82 -3.01,-9.09 -5.8,-6.3 m 22.045,0.05 c -2.944,3.679 -2.503,11.006 0.767,12.756 2.832,1.516 4.988,-1.296 4.988,-6.506 0,-5.777 -3.282,-9.341 -5.755,-6.25 m 21.755,5.75 c -0.854,1.596 -0.76,2 0.465,2 0.868,0 1.535,-0.869 1.535,-2 0,-1.1 -0.209,-2 -0.465,-2 -0.255,0 -0.946,0.9 -1.535,2"
     stroke="none"
     fill="#905233"
     fill-rule="evenodd"
     id="path3" />
</svg>
